:SAMPLES-PER-SECOND 30
:FRAME-RANGE 1-2009
:FULLY-SPECIFIED
:DEGREES
314
root  -33.4047 38.3645 110.332 176.764 56.5785 170.615
RightUpLeg  -15.333 -4.87085 -12.021
RightLeg  14.872 0.796039 -0.767765
RightFoot  -4.93169 -0.732684 12.4373
RightToes  4.71047e-010 1.2921e-014 -6.02303e-014
Spine  8.52104 -2.85349 1.66095
Spine1  1.83327 -2.43307 -2.17747
HEad  7.60389 18.4904 -17.4666
LeftShoulder1  1.78877 -1.12146 -32.6337
LeftArm  -13.5864 -17.8572 -16.0152
LeftForeArm  11.2531 0.756676 -16.6444
LeftHand  0.034756 2.1085 -1.67313
RightShoulder  2.06734 1.32884 36.9278
RightArm  28.0775 -13.2806 9.42547
RightForeArm  12.708 5.50299 16.8221
RightHand  0.201227 -1.78627 6.8938
LeftUpLeg  -15.4274 -4.39265 -8.45037
LeftLeg  20.5987 -3.5791 -1.15675
LeftFoot  -7.90401 0.143527 -3.20265
LeftToes  2.15783e-011 -7.56106e-012 -8.20802e-012
315
root  -33.2628 38.4988 110.643 178.544 51.5774 171.048
RightUpLeg  -14.9287 -8.97817 -11.9993
RightLeg  13.9438 -0.318087 -0.642843
RightFoot  -4.71098 -0.734485 12.0818
RightToes  4.71047e-010 1.2921e-014 -6.02303e-014
Spine  8.48844 -2.29381 1.92863
Spine1  0.841253 -1.95468 -1.57317
HEad  8.59338 19.2123 -16.9292
LeftShoulder1  1.63843 -0.882215 -31.3106
LeftArm  -12.992 -16.8953 -14.8584
LeftForeArm  10.9443 -2.86576 -15.9477
LeftHand  0.00105914 1.96357 -0.406354
RightShoulder  2.42513 2.14506 37.05
RightArm  26.0385 -11.7778 7.50312
RightForeArm  18.5419 3.20441 17.2652
RightHand  0.172455 -1.25601 5.09216
LeftUpLeg  -17.8538 5.6513 -9.82846
LeftLeg  21.3698 -0.315639 0.197663
LeftFoot  -9.65016 0.117405 -4.0342
LeftToes  2.15783e-011 -7.56106e-012 -8.20802e-012
316
root  -33.0981 38.6499 110.889 -179.981 45.8936 171.575
RightUpLeg  -13.6578 -12.0605 -12.0916
RightLeg  12.7038 -3.04471 -0.819203
RightFoot  -4.43855 -0.757605 12.017
RightToes  4.71047e-010 1.2921e-014 -6.02303e-014
Spine  7.9687 -2.26587 2.00008
Spine1  0.451459 -2.00364 -1.13968
HEad  9.0221 19.8601 -16.0313
LeftShoulder1  1.52872 -0.732491 -30.0268
LeftArm  -10.6124 -15.8738 -14.375
LeftForeArm  8.88735 -7.20185 -14.7567
LeftHand  -0.0308259 1.80455 0.694058
RightShoulder  2.57005 2.54088 36.6373
RightArm  22.097 -10.815 7.42317
RightForeArm  19.8139 2.3631 17.1333
RightHand  0.0804087 -2.10768 3.31025
LeftUpLeg  -19.3354 11.2667 -10.6245
LeftLeg  21.9636 2.3436 1.37609
LeftFoot  -10.6926 0.0871019 -4.06452
LeftToes  2.15783e-011 -7.56106e-012 -8.20802e-012
317
root  -32.9371 38.7766 111.077 -178.993 39.5472 172.082
RightUpLeg  -11.6788 -14.5395 -12.5248
RightLeg  11.6876 -6.89339 -0.83761
RightFoot  -4.37398 -0.756752 11.8994
RightToes  4.71047e-010 1.2921e-014 -6.02303e-014
Spine  7.60981 -2.32961 1.69841
Spine1  0.0219647 -2.31869 -0.0682481
HEad  9.41828 19.8793 -14.849
LeftShoulder1  1.54524 -0.820878 -29.6669
LeftArm  -6.33137 -15.6344 -13.8362
LeftForeArm  5.00128 -11.5228 -13.0117
LeftHand  -0.0449891 1.47908 1.11575
RightShoulder  2.39509 2.1759 36.3057
RightArm  21.5954 -10.3282 8.1868
RightForeArm  17.227 4.35479 16.5553
RightHand  0.0682261 -2.06808 2.82874
LeftUpLeg  -20.1087 13.8066 -10.3442
LeftLeg  22.998 3.30565 1.8746
LeftFoot  -11.4343 0.0650146 -4.31448
LeftToes  2.15783e-011 -7.56106e-012 -8.20802e-012
318
root  -32.7737 38.8984 111.213 -178.463 33.4137 172.368
RightUpLeg  -9.23101 -16.2021 -13.3639
RightLeg  10.5421 -11.2471 -0.351546
RightFoot  -4.234 -0.770736 11.9042
RightToes  4.71047e-010 1.2921e-014 -6.02303e-014
Spine  7.61946 -2.25809 1.32826
Spine1  -0.852065 -2.3696 0.453734
HEad  10.1132 19.4176 -13.6811
LeftShoulder1  1.57054 -0.933032 -29.3295
LeftArm  -2.98592 -15.9763 -14.2088
LeftForeArm  1.99205 -14.5221 -11.2706
LeftHand  -0.0554552 1.2014 1.37679
RightShoulder  2.26987 1.78789 37.0249
RightArm  25.8383 -10.1907 8.64346
RightForeArm  11.3354 8.33573 15.3745
RightHand  0.0552597 -2.77465 3.20893
LeftUpLeg  -20.2147 15.3049 -9.20274
LeftLeg  23.62 4.08698 2.2913
LeftFoot  -11.3945 0.0659467 -4.9826
LeftToes  2.15783e-011 -7.56106e-012 -8.20802e-012
319
root  -32.6355 38.9569 111.265 -177.932 27.7299 172.947
RightUpLeg  -6.83101 -16.6254 -13.9893
RightLeg  9.73481 -16.1927 0.289504
RightFoot  -4.24978 -0.788982 12.2203
RightToes  4.71047e-010 1.2921e-014 -6.02303e-014
Spine  7.73167 -2.11669 1.40783
Spine1  -1.85911 -2.25003 0.609783
HEad  11.0634 18.7068 -12.4846
LeftShoulder1  1.52276 -0.837837 -28.9977
LeftArm  0.0180976 -16.3698 -15.5853
LeftForeArm  -0.499135 -16.7883 -9.67612
LeftHand  -0.0652224 1.12361 1.6324
RightShoulder  2.19027 1.49573 37.9221
RightArm  34.4467 -10.5756 9.91591
RightForeArm  4.69237 14.0609 12.3487
RightHand  0.146361 -0.873756 3.92184
LeftUpLeg  -20.4584 17.8301 -7.25267
LeftLeg  24.4636 4.24857 2.44549
LeftFoot  -10.5018 0.0993124 -4.96537
LeftToes  2.15783e-011 -7.56106e-012 -8.20802e-012
